<svg width="24" height="24" viewBox="0 0 24 24" fill="none" xmlns="http://www.w3.org/2000/svg">
<path d="M23.5 12.0225C23.4998 12.1155 23.4747 12.2076 23.4258 12.2891C23.3754 12.3731 23.3011 12.4427 23.2109 12.4902L23.1777 12.5098L15.4004 17.4121L15.3926 17.417C15.3102 17.4709 15.2122 17.5 15.1113 17.5C15.0105 17.5 14.9125 17.4708 14.8301 17.417L14.8213 17.4111L14.8135 17.4062C14.7202 17.3501 14.6432 17.2731 14.5889 17.1826C14.5346 17.0921 14.5045 16.9903 14.5 16.8867L14.5 7.04297C14.4987 6.94728 14.524 6.85233 14.5742 6.76855C14.6239 6.68575 14.6968 6.61682 14.7852 6.56934C14.8871 6.52378 14.9984 6.5 15.1113 6.5C15.2228 6.50002 15.3327 6.52293 15.4336 6.56738L23.1758 11.5029L23.1865 11.5098C23.2799 11.5659 23.3568 11.6429 23.4111 11.7334C23.4643 11.822 23.4945 11.9211 23.5 12.0225Z" stroke="black"/>
<path d="M9.5 15.1113L9.5 22.8887C9.5 23.0507 9.43589 23.2067 9.32129 23.3213C9.20668 23.4359 9.05075 23.5 8.88867 23.5L1.11133 23.5C0.949249 23.5 0.793315 23.4359 0.678711 23.3213C0.564106 23.2067 0.5 23.0508 0.5 22.8887L0.5 15.1113C0.5 14.9492 0.564106 14.7933 0.678711 14.6787C0.793317 14.5641 0.949252 14.5 1.11133 14.5L8.88867 14.5C9.05075 14.5 9.20668 14.5641 9.32129 14.6787C9.43589 14.7933 9.5 14.9493 9.5 15.1113Z" stroke="black"/>
<path d="M10.5 5.5C10.5 6.15654 10.3704 6.80651 10.1191 7.41309C9.86787 8.01971 9.49945 8.57086 9.03516 9.03516C8.57086 9.49945 8.01971 9.86787 7.41309 10.1191C6.80651 10.3704 6.15654 10.5 5.5 10.5C4.51109 10.5 3.54392 10.2066 2.72168 9.65723C1.89962 9.10783 1.25924 8.32657 0.880859 7.41309C0.502487 6.49951 0.402791 5.49425 0.595703 4.52441C0.788637 3.55453 1.2656 2.66409 1.96484 1.96484C2.66409 1.2656 3.55453 0.788636 4.52441 0.595703C5.49425 0.40279 6.49951 0.502487 7.41309 0.880859C8.32657 1.25924 9.10783 1.89962 9.65723 2.72168C10.2066 3.54392 10.5 4.51109 10.5 5.5Z" stroke="black"/>
</svg>
